<svg width="40" height="40" viewBox="0 0 40 40" fill="none" xmlns="http://www.w3.org/2000/svg">
<path d="M20 40C31.0834 40 40 31.0834 40 20C40 8.9166 31.0834 0 20 0C8.9166 0 0 8.9166 0 20C0 31.0834 8.9166 40 20 40Z" fill="#E84142"/>
<path d="M25.4769 20.4566C26.0148 19.5275 26.8828 19.5275 27.4207 20.4566L30.7704 26.3369C31.3083 27.2661 30.8682 28.024 29.7924 28.024H23.0441C21.9805 28.024 21.5404 27.2661 22.0661 26.3369L25.4769 20.4566ZM18.9975 9.13605C19.5354 8.20693 20.3912 8.20693 20.9291 9.13605L21.6749 10.4808L23.4353 13.5738C23.8632 14.454 23.8632 15.4932 23.4353 16.3734L17.5305 26.6059C16.9926 27.4372 16.1002 27.9629 15.1099 28.024H10.2076C9.13177 28.024 8.69167 27.2783 9.22958 26.3369L18.9975 9.13605Z" fill="white"/>
</svg>
