<svg width="40" height="40" viewBox="0 0 40 40" fill="none" xmlns="http://www.w3.org/2000/svg">
<path d="M20 40C31.0834 40 40 31.0834 40 20C40 8.9166 31.0834 0 20 0C8.9166 0 0 8.9166 0 20C0 31.0834 8.9166 40 20 40Z" fill="#25B6EA"/>
<path d="M19.4291 8.2299C20.0125 7.92337 20.9 7.92337 21.4833 8.2299L27.4355 11.3578C27.7868 11.5424 27.9797 11.8175 28.0143 12.1015H28.02V27.824C28.0123 28.1337 27.8175 28.4414 27.4355 28.6422L21.4833 31.7701C20.9 32.0766 20.0125 32.0766 19.4291 31.7701L13.477 28.6422C13.0966 28.4423 12.914 28.1324 12.905 27.824C12.9041 27.7936 12.904 27.7683 12.9048 27.7473L12.9048 12.2025C12.9042 12.1855 12.9042 12.1685 12.9046 12.1515L12.905 12.1015L12.9077 12.1015C12.9341 11.8144 13.1183 11.5463 13.477 11.3578L19.4291 8.2299ZM27.083 20.873L21.4833 23.8156C20.9 24.1222 20.0125 24.1222 19.4291 23.8156L13.8417 20.8795V27.7928L19.4291 30.7135C19.7446 30.8813 20.0721 31.0448 20.3923 31.0656L20.4562 31.0677C20.7899 31.0688 21.1138 30.9003 21.4423 30.7407L27.083 27.7677V20.873ZM11.9369 27.4821C11.9369 28.0844 12.0072 28.4804 12.147 28.7594C12.2628 28.9906 12.4365 29.1672 12.7538 29.3823L12.7719 29.3945C12.8415 29.4411 12.9182 29.4901 13.0116 29.5475L13.1217 29.6146L13.4597 29.8176L12.9748 30.6153L12.5964 30.3878L12.5328 30.349C12.4234 30.2817 12.3327 30.2241 12.2482 30.1673C11.344 29.5608 11.0068 28.8996 11.0001 27.524L11 27.4821H11.9369ZM19.9877 16.6589C19.9443 16.6737 19.9037 16.6908 19.8667 16.7103L13.9145 19.8382C13.9083 19.8415 13.9023 19.8447 13.8967 19.8479L13.8916 19.8508L13.901 19.8561L13.9145 19.8635L19.8667 22.9914C19.9037 23.0108 19.9443 23.028 19.9877 23.0428V16.6589ZM20.9248 16.6589V23.0428C20.9682 23.028 21.0088 23.0108 21.0458 22.9914L26.998 19.8635C27.0042 19.8602 27.0102 19.857 27.0158 19.8537L27.0209 19.8508L27.0115 19.8455L26.998 19.8382L21.0458 16.7103C21.0088 16.6908 20.9682 16.6737 20.9248 16.6589ZM27.083 13.2168L21.7435 16.0227L27.083 18.8287V13.2168ZM13.8417 13.2234V18.8221L19.1688 16.0227L13.8417 13.2234ZM21.0458 9.05415C20.7363 8.89149 20.1762 8.89149 19.8667 9.05415L13.9145 12.1821C13.9083 12.1853 13.9023 12.1886 13.8967 12.1918L13.8916 12.1947L13.901 12.2L13.9145 12.2074L19.8667 15.3353C20.1762 15.4979 20.7363 15.4979 21.0458 15.3353L26.998 12.2074C27.0042 12.2041 27.0102 12.2008 27.0158 12.1976L27.0209 12.1947L27.0115 12.1894L26.998 12.1821L21.0458 9.05415ZM27.9626 9.39716L28.341 9.62454L28.4046 9.66339C28.514 9.73059 28.6047 9.78832 28.6893 9.84505C29.5935 10.4516 29.9307 11.1128 29.9373 12.4884L29.9375 12.5303H29.0006C29.0006 11.9279 28.9302 11.532 28.7905 11.253C28.6747 11.0218 28.501 10.8452 28.1837 10.6302L28.1656 10.618C28.096 10.5713 28.0193 10.5223 27.9259 10.4648L27.8158 10.3977L27.4777 10.1948L27.9626 9.39716Z" fill="white"/>
</svg>
