<svg width="40" height="40" viewBox="0 0 40 40" fill="none" xmlns="http://www.w3.org/2000/svg">
<path d="M20 40C31.0834 40 40 31.0834 40 20C40 8.9166 31.0834 0 20 0C8.9166 0 0 8.9166 0 20C0 31.0834 8.9166 40 20 40Z" fill="#8247E5"/>
<path d="M26.1103 15.7909C25.6671 15.5298 25.0915 15.5298 24.6046 15.7909L21.1507 17.7943L18.8042 19.1009L15.3504 21.1037C14.9078 21.3654 14.3316 21.3654 13.8447 21.1037L11.0993 19.5362C10.6567 19.2745 10.3465 18.7955 10.3465 18.2734V15.1813C10.3465 14.6586 10.6124 14.1796 11.0993 13.9185L13.8004 12.3941C14.2436 12.133 14.8191 12.133 15.306 12.3941L18.0071 13.9185C18.4497 14.1796 18.7599 14.6586 18.7599 15.1813V17.1842L21.1064 15.8346V13.8311C21.1064 13.3084 20.8411 12.8294 20.3536 12.5683L15.3504 9.69415C14.9078 9.43284 14.3316 9.43284 13.8447 9.69415L8.75282 12.5683C8.26591 12.8294 8 13.3084 8 13.8311V19.623C8 20.1457 8.26591 20.6247 8.75282 20.8858L13.8447 23.7605C14.2879 24.0215 14.8634 24.0215 15.3504 23.7605L18.8042 21.8007L21.1507 20.4505L24.6046 18.4907C25.0472 18.2296 25.6228 18.2296 26.1103 18.4907L28.8113 20.0152C29.2539 20.2762 29.5636 20.7553 29.5636 21.278V24.37C29.5636 24.8927 29.2982 25.3718 28.8113 25.6328L26.1103 27.2004C25.6671 27.4621 25.0915 27.4621 24.6046 27.2004L21.9036 25.6765C21.461 25.4149 21.1507 24.9359 21.1507 24.4137V22.4103L18.8042 23.7605V25.7633C18.8042 26.2861 19.0696 26.7651 19.5571 27.0262L24.6489 29.9009C25.0915 30.1619 25.6671 30.1619 26.1546 29.9009L31.2465 27.0262C31.6891 26.7651 31.9993 26.2861 31.9993 25.7633V19.9715C31.9993 19.4487 31.7334 18.9697 31.2465 18.7087L26.1103 15.7909Z" fill="white"/>
</svg>
